<?xml version="1.0" encoding="UTF-8" standalone="no"?>
<!-- Uploaded to: SVG Repo, www.svgrepo.com, Generator: SVG Repo Mixer Tools -->
<svg width="800px" height="800px" viewBox="0 0 64 64" version="1.1" xmlns="http://www.w3.org/2000/svg" xmlns:xlink="http://www.w3.org/1999/xlink">
    
    <title>cld-server</title>
    <desc>Created with Sketch.</desc>
    <defs>

</defs>
    <g id="General" stroke="none" stroke-width="1" fill="none" fill-rule="evenodd">
        <g id="SLICES-64px" transform="translate(-810.000000, -200.000000)">

</g>
        <g id="ICONS" transform="translate(-805.000000, -195.000000)">
            <g id="cld-server" transform="translate(810.000000, 204.000000)">
                <path d="M48,12 C51.313,12 54,9.313 54,6 C54,2.687 51.313,0 48,0 L6,0 C2.687,0 0,2.687 0,6 C0,9.313 2.687,12 6,12 L48,12 Z" id="Fill-423" fill="#4BAADC">

</path>
                <path d="M10,6 C10,7.104 9.104,8 8,8 C6.896,8 6,7.104 6,6 C6,4.896 6.896,4 8,4 C9.104,4 10,4.896 10,6" id="Fill-424" fill="#FFFFFF">

</path>
                <path d="M48,30 C51.313,30 54,27.313 54,24 C54,20.687 51.313,18 48,18 L6,18 C2.687,18 0,20.687 0,24 C0,27.313 2.687,30 6,30 L48,30 Z" id="Fill-425" fill="#4BAADC">

</path>
                <path d="M10,24 C10,25.104 9.104,26 8,26 C6.896,26 6,25.104 6,24 C6,22.896 6.896,22 8,22 C9.104,22 10,22.896 10,24" id="Fill-426" fill="#FFFFFF">

</path>
                <path d="M48,48 C51.313,48 54,45.313 54,42 C54,38.687 51.313,36 48,36 L6,36 C2.687,36 0,38.687 0,42 C0,45.313 2.687,48 6,48 L48,48 Z" id="Fill-427" fill="#4BAADC">

</path>
                <path d="M10,42 C10,43.104 9.104,44 8,44 C6.896,44 6,43.104 6,42 C6,40.896 6.896,40 8,40 C9.104,40 10,40.896 10,42" id="Fill-428" fill="#FFFFFF">

</path>
                <path d="M48,12 C51.313,12 54,9.313 54,6 C54,2.687 51.313,0 48,0 L6,0 C2.687,0 0,2.687 0,6 C0,9.313 2.687,12 6,12 L48,12 Z" id="Stroke-429" stroke="#1E69A0" stroke-width="2" stroke-linecap="round" stroke-linejoin="round">

</path>
                <path d="M10,6 C10,7.104 9.104,8 8,8 C6.896,8 6,7.104 6,6 C6,4.896 6.896,4 8,4 C9.104,4 10,4.896 10,6 Z" id="Stroke-430" stroke="#1E69A0" stroke-width="2" stroke-linecap="round" stroke-linejoin="round">

</path>
                <path d="M48,6 L36,6" id="Stroke-431" stroke="#1E69A0" stroke-width="2" stroke-linecap="round" stroke-linejoin="round">

</path>
                <path d="M48,30 C51.313,30 54,27.313 54,24 C54,20.687 51.313,18 48,18 L6,18 C2.687,18 0,20.687 0,24 C0,27.313 2.687,30 6,30 L48,30 Z" id="Stroke-432" stroke="#1E69A0" stroke-width="2" stroke-linecap="round" stroke-linejoin="round">

</path>
                <path d="M10,24 C10,25.104 9.104,26 8,26 C6.896,26 6,25.104 6,24 C6,22.896 6.896,22 8,22 C9.104,22 10,22.896 10,24 Z" id="Stroke-433" stroke="#1E69A0" stroke-width="2" stroke-linecap="round" stroke-linejoin="round">

</path>
                <path d="M48,24 L36,24" id="Stroke-434" stroke="#1E69A0" stroke-width="2" stroke-linecap="round" stroke-linejoin="round">

</path>
                <path d="M48,48 C51.313,48 54,45.313 54,42 C54,38.687 51.313,36 48,36 L6,36 C2.687,36 0,38.687 0,42 C0,45.313 2.687,48 6,48 L48,48 Z" id="Stroke-435" stroke="#1E69A0" stroke-width="2" stroke-linecap="round" stroke-linejoin="round">

</path>
                <path d="M10,42 C10,43.104 9.104,44 8,44 C6.896,44 6,43.104 6,42 C6,40.896 6.896,40 8,40 C9.104,40 10,40.896 10,42 Z" id="Stroke-436" stroke="#1E69A0" stroke-width="2" stroke-linecap="round" stroke-linejoin="round">

</path>
                <path d="M48,42 L36,42" id="Stroke-437" stroke="#1E69A0" stroke-width="2" stroke-linecap="round" stroke-linejoin="round">

</path>
            </g>
        </g>
    </g>
</svg>